<svg width="265" height="43" viewBox="0 0 265 43" fill="none" xmlns="http://www.w3.org/2000/svg">
<path d="M17.1922 43.5338C11.0906 43.5841 3.74218 43.3626 0.930138 41.309C-1.45744 39.5875 1.03625 37.3526 5.17473 36.215C9.3132 35.0775 14.6454 34.7755 19.7389 34.6244C24.8325 34.4734 30.1117 34.413 34.8073 33.6379C44.3841 32.0674 49.1062 28.0607 55.6588 24.9701C62.4767 21.7587 72.929 19.2923 83.7262 19.7453C91.2868 20.0574 98.37 21.7587 105.931 21.497C114.606 21.205 121.397 18.4366 129.886 17.7118C138.402 16.9869 147.475 18.497 153.47 20.903C159.412 23.2789 163.763 26.7017 172.173 27.4365C180.344 28.1412 188.965 25.9164 196.977 26.8325C202.522 27.4667 206.209 29.4399 211.17 30.5875C219.845 32.601 230.96 31.8157 240.962 32.5003C248.337 33.0036 255.314 34.3627 260.699 36.3358C262.636 37.0405 264.44 37.8862 264.891 38.8828C265.66 40.564 262.264 42.1949 258.152 42.8895C254.04 43.5841 249.371 43.5539 244.888 43.5237C168.618 42.9398 92.348 42.97 17.1922 43.5338Z" fill="#FFF5EC"/>
<path d="M135.581 14.5745C135.324 15.3161 135.088 16.104 135.213 16.884C135.337 17.664 135.942 18.4208 136.729 18.4449C137.366 18.4673 137.918 18.0245 138.345 17.5531C139.904 15.8284 140.591 13.3407 140.146 11.0476C140.034 10.4664 139.823 9.85554 139.343 9.5061C137.242 7.96645 135.955 13.4785 135.581 14.5745Z" fill="#FFCCB8"/>
<path d="M132.151 10.9163C132.271 11.2599 132.465 11.6341 132.815 11.7209C133.087 11.7849 133.374 11.6551 133.559 11.444C133.744 11.233 133.833 10.9589 133.895 10.6857C134.074 9.92126 133.913 6.20559 132.418 6.82046C131.241 7.30279 131.88 10.1466 132.151 10.9163Z" fill="#FFCCB8"/>
<path d="M112.829 21.6443C113.167 21.911 113.58 22.1687 113.999 22.0916C114.388 22.0232 114.689 21.6739 114.811 21.2919C114.926 20.9117 114.895 20.4962 114.838 20.1014C114.557 18.2111 113.692 16.459 112.834 14.7509C112.57 14.2272 112.266 13.6565 111.728 13.4356C111.144 13.1952 110.434 13.4753 110.072 13.9929C108.515 16.2589 111.099 20.2636 112.829 21.6443Z" fill="#FFCCB8"/>
<path d="M97.9172 34.4762C97.2006 35.7316 97.8479 37.4297 99.0055 38.2988C100.163 39.1679 101.675 39.3843 103.114 39.4394C105.952 39.548 106.93 36.6611 104.672 35.0302C102.951 33.7906 99.4029 31.8783 97.9172 34.4762Z" fill="#FFCCB8"/>
<path d="M147.545 31.6965C147.806 32.4757 148.642 32.9558 149.462 32.9832C150.276 33.0124 151.063 32.6638 151.746 32.2221C153.397 31.1433 155.327 28.1996 152.456 27.3105C150.26 26.6217 146.736 29.2685 147.545 31.6965Z" fill="#FFCCB8"/>
<path d="M133.664 32.2713C133.562 32.8106 133.574 33.4475 133.987 33.8162C134.46 34.2328 135.244 34.0487 135.674 33.5893C136.105 33.13 136.258 32.4776 136.376 31.8615C136.476 31.3162 136.561 30.7425 136.37 30.2237C135.469 27.816 133.837 31.3778 133.664 32.2713Z" fill="#FFCCB8"/>
<path d="M117.77 32.0259C117.722 32.0201 117.682 31.9928 117.664 31.9524C115.44 27.1169 113.388 22.1333 111.557 17.1502C111.531 17.0858 111.568 17.0099 111.632 16.9846C111.702 16.9575 111.771 16.9959 111.797 17.0603C113.628 22.0434 115.683 27.0132 117.898 31.8444C117.93 31.9071 117.901 31.9873 117.833 32.0204C117.815 32.0256 117.789 32.0266 117.77 32.0259Z" fill="white"/>
<path d="M126.057 51.0099C126.024 51.0066 125.993 50.9895 125.966 50.9647C119.709 43.5362 110.637 38.383 101.086 36.8199C101.017 36.8074 100.966 36.744 100.976 36.669C100.989 36.6001 101.059 36.5533 101.126 36.5598C110.741 38.1372 119.866 43.3201 126.163 50.7958C126.211 50.8472 126.204 50.9342 126.145 50.9775C126.127 51.0026 126.091 51.0131 126.057 51.0099Z" fill="white"/>
<path d="M132.446 41.3629C132.44 41.3647 132.432 41.3604 132.426 41.3622C132.357 41.3496 132.31 41.2784 132.329 41.2078C132.976 38.098 133.878 35.0178 135.016 32.0517C135.042 31.9852 135.116 31.9504 135.182 31.9767C135.248 32.0031 135.283 32.0778 135.257 32.1442C134.122 35.0965 133.222 38.1629 132.578 41.2589C132.569 41.3201 132.505 41.3652 132.446 41.3629Z" fill="white"/>
<path d="M127.628 50.1642C127.622 50.1659 127.614 50.1617 127.608 50.1634C127.54 50.1509 127.493 50.0797 127.505 50.0108C130.048 37.7483 133.508 25.5824 137.809 13.8433C137.835 13.7768 137.909 13.742 137.975 13.7683C138.041 13.7947 138.076 13.8693 138.05 13.9358C133.758 25.6594 130.296 37.8193 127.766 50.0584C127.754 50.1274 127.693 50.1647 127.628 50.1642Z" fill="white"/>
<path d="M105.575 43.3819C105.562 43.3794 105.542 43.3787 105.526 43.3702C102.398 41.8051 99.0664 40.7437 95.6093 40.2287C95.5406 40.2162 95.4896 40.1528 95.5001 40.0779C95.5123 40.0089 95.5753 39.9578 95.6499 39.9686C99.1285 40.4903 102.493 41.5549 105.639 43.1346C105.701 43.1687 105.73 43.2451 105.696 43.3073C105.679 43.3581 105.628 43.386 105.575 43.3819Z" fill="white"/>
<path d="M143.083 37.3031C143.058 37.3041 143.034 37.2913 143.009 37.2725C142.952 37.2307 142.947 37.1472 142.988 37.0893C145.415 34.0913 148.211 31.3968 151.287 29.0838C151.345 29.0405 151.426 29.0495 151.469 29.1086C151.513 29.1678 151.504 29.2488 151.445 29.2921C148.385 31.5938 145.606 34.277 143.186 37.2535C143.165 37.2923 143.124 37.3106 143.083 37.3031Z" fill="white"/>
<path d="M133.571 26.9486C133.499 26.9439 133.447 26.8804 133.452 26.8073C133.918 20.9089 133.566 14.4598 132.459 8.64394C132.445 8.57602 132.489 8.50434 132.563 8.48931C132.636 8.47428 132.702 8.52041 132.717 8.59435C133.826 14.436 134.184 20.9092 133.718 26.8273C133.707 26.9023 133.644 26.9534 133.571 26.9486Z" fill="white"/>
<path d="M139.898 30.0715C141.085 30.4877 142.43 30.1783 143.484 29.497C144.536 28.8096 145.323 27.7949 145.99 26.724C147.133 24.8863 147.973 22.7653 147.849 20.5935C147.797 19.6616 147.502 18.6571 146.714 18.163C145.998 17.7132 145.067 17.8164 144.277 18.0935C141.694 19.0077 140.092 21.3653 139.037 23.9023C137.836 26.7827 139.05 29.7714 139.898 30.0715Z" fill="#FFCCB8"/>
<path d="M136.976 36.4351C136.957 36.4344 136.943 36.4319 136.922 36.4251C136.82 36.3895 136.767 36.2744 136.808 36.1709C138.581 31.3853 141.175 26.6529 143.716 22.2495C143.767 22.1563 143.888 22.1272 143.981 22.1784C144.076 22.2355 144.104 22.3516 144.053 22.4448C141.52 26.8326 138.935 31.5495 137.174 36.3118C137.146 36.392 137.063 36.4424 136.976 36.4351Z" fill="white"/>
<path d="M140.859 27.9671C140.778 27.9581 140.711 27.906 140.687 27.8218C140.272 26.3427 140.146 24.8251 140.309 23.3206C140.322 23.212 140.408 23.1281 140.524 23.1464C140.632 23.1604 140.705 23.2564 140.698 23.3632C140.544 24.767 140.657 26.1711 141.022 27.5471C141.921 27.3813 142.781 27.0573 143.567 26.5917C143.662 26.5379 143.781 26.5682 143.835 26.6635C143.889 26.7587 143.859 26.8785 143.764 26.9324C142.884 27.4518 141.922 27.8056 140.91 27.9651C140.891 27.9644 140.877 27.9619 140.859 27.9671Z" fill="white"/>
<path d="M128.096 49.5889C128.239 47.0645 129.11 44.6076 130.442 42.4599C131.776 40.3181 133.562 38.4812 135.554 36.9435C138.283 34.8433 141.619 33.2381 145.052 33.5182C146.522 33.636 148.022 34.1434 149.024 35.2346C150.401 36.7385 150.532 39.091 149.824 40.997C149.118 42.909 147.702 44.4608 146.238 45.8699C144.348 47.685 142.282 49.3685 139.876 50.4006L128.096 49.5889Z" fill="#FFCCB8"/>
<path d="M126.089 38.0462C128.222 37.8126 129.66 35.7383 130.448 33.7303C131.748 30.4096 132.094 26.7609 131.802 23.1948C131.511 19.6348 130.611 16.1426 129.498 12.7453C129.011 11.2615 128.467 9.76167 127.486 8.54046C126.512 7.32351 125.014 6.42356 123.464 6.54468C122.099 6.65103 120.884 7.53637 120.107 8.6724C119.327 9.80242 118.939 11.1576 118.665 12.5052C117.964 16.0293 118.04 19.6783 118.545 23.2406C119.347 28.8326 121.445 34.5932 126.089 38.0462Z" fill="#FFCCB8"/>
<path d="M119.512 39.2303C120.065 38.8134 120.382 38.1455 120.485 37.4555C120.59 36.7715 120.488 36.0697 120.33 35.3975C119.504 31.9161 117.054 29.0546 114.456 26.5958C113.908 26.0771 113.342 25.5638 112.75 25.097C111.334 23.99 109.722 23.1432 108.016 22.5981C107.064 22.296 106.061 22.0871 105.063 22.1837C104.065 22.2803 103.077 22.7203 102.465 23.5138C101.925 24.2207 101.731 25.1531 101.779 26.0471C101.875 27.7697 102.789 29.3373 103.84 30.7079C106.794 34.578 111.019 37.4481 115.692 38.763C116.952 39.1185 118.278 39.3635 119.512 39.2303Z" fill="#FFCCB8"/>
<path d="M155.478 51.9082C155.807 52.4323 155.151 53.0297 154.575 53.2575C153.126 53.8325 147.137 53.7202 145.587 53.5737C144.309 53.4455 143.057 53.0744 141.774 53.1304C140.671 53.1793 139.589 53.5424 138.481 53.5277C136.554 53.4916 134.762 52.2989 132.833 52.3876C130.115 52.5116 128.012 55.1077 125.3 55.2953C122.288 55.4992 119.802 52.6938 116.788 52.4476C113.946 52.2159 111.427 54.2806 108.602 54.6582C106.858 54.8888 105.032 54.4442 103.59 53.4235C102.403 52.589 101.466 51.3873 100.162 50.7506C98.2916 49.8423 96.0545 50.2761 94.044 49.7551C93.6294 49.648 93.1538 49.4216 93.1116 48.9898C93.0773 48.6732 93.3121 48.3888 93.571 48.2083C94.3645 47.636 95.4216 47.6526 96.401 47.6921C96.9528 47.7132 97.5321 47.7394 98.1251 47.768C104.14 48.0359 111.972 48.4963 119.724 48.9932C134.838 49.9643 154.057 51.4037 154.652 51.5038C154.961 51.5632 155.314 51.6362 155.478 51.9082Z" fill="white"/>
<path d="M119.74 48.8708L119.732 48.9973C111.98 48.5004 104.154 48.0383 98.1328 47.7721L98.1335 47.7523C97.4041 46.3722 97.9166 44.5758 99.0071 43.4656C100.098 42.3554 101.642 41.8177 103.169 41.5332C108.86 40.4722 115.044 42.6241 118.868 47.0034C119.333 47.5268 119.792 48.163 119.74 48.8708Z" fill="#FFCCB8"/>
<path d="M107.501 27.6875C107.468 27.6842 107.433 27.6749 107.4 27.6519L106.138 26.7153C106.054 26.6487 106.032 26.5309 106.096 26.4401C106.163 26.3554 106.28 26.3341 106.37 26.3991L107.632 27.3356C107.717 27.4023 107.738 27.5201 107.674 27.6108C107.632 27.6687 107.562 27.6957 107.501 27.6875Z" fill="white"/>
<path d="M126.191 49.5397C126.125 49.5332 126.069 49.4973 126.031 49.4364C122.053 41.8949 116.509 35.015 109.981 29.5409C109.896 29.4742 109.885 29.3469 109.959 29.2664C110.025 29.1817 110.151 29.1707 110.232 29.2452C116.801 34.7466 122.381 41.6616 126.379 49.2495C126.427 49.3465 126.395 49.4603 126.301 49.5142C126.267 49.5307 126.231 49.5412 126.191 49.5397Z" fill="white"/>
<path d="M109.094 48.4054C109.055 48.4039 109.01 48.3843 108.976 48.3552C107.28 46.8014 105.245 45.5557 103.099 44.7479C102.997 44.7123 102.944 44.5973 102.985 44.4937C103.02 44.392 103.135 44.3389 103.238 44.3805C105.429 45.2078 107.504 46.4808 109.242 48.0681C109.323 48.1425 109.326 48.2656 109.258 48.3443C109.206 48.3858 109.148 48.4094 109.094 48.4054Z" fill="white"/>
<path d="M113.191 32.5584C112.346 32.4924 111.67 32.3773 111.033 32.1982C110.927 32.1704 110.869 32.0631 110.897 31.9571C110.924 31.8511 111.031 31.7937 111.136 31.8216C111.795 32.0074 112.505 32.1257 113.419 32.1845C113.176 30.139 112.033 28.299 111.181 27.0788C111.117 26.9931 111.139 26.869 111.23 26.8031C111.315 26.739 111.439 26.7615 111.505 26.8533C112.413 28.1549 113.646 30.1451 113.838 32.375C113.842 32.4327 113.825 32.4836 113.786 32.5277C113.745 32.5658 113.693 32.5876 113.634 32.5853C113.476 32.5793 113.33 32.5697 113.191 32.5584Z" fill="white"/>
<path d="M117.933 37.2563C115.461 37.0665 113.027 36.2774 110.89 34.9704C110.796 34.9132 110.768 34.7972 110.825 34.7022C110.881 34.6072 110.997 34.5799 111.092 34.637C113.126 35.8827 115.44 36.6414 117.795 36.8525C117.862 36.284 117.774 35.6958 117.549 35.1737C117.507 35.0749 117.551 34.9576 117.649 34.9158C117.747 34.8739 117.864 34.9181 117.906 35.0168C118.187 35.666 118.274 36.4049 118.151 37.0941C118.138 37.2026 118.033 37.266 117.933 37.2563Z" fill="white"/>
<path d="M124.868 17.1798C124.775 17.1743 124.693 17.0938 124.691 16.9966C124.617 15.8161 124.483 14.6273 124.303 13.4586C124.285 13.3528 124.359 13.2525 124.465 13.2348C124.57 13.217 124.67 13.2922 124.688 13.398C124.872 14.5787 125.003 15.7813 125.08 16.9738C125.086 17.0831 125.002 17.173 124.901 17.1831C124.888 17.1806 124.874 17.178 124.868 17.1798Z" fill="white"/>
<path d="M126.634 49.7433C126.542 49.7378 126.461 49.6634 126.453 49.5679C126.066 44.9712 125.991 40.2833 125.922 35.7503C125.843 31.0504 125.769 26.1921 125.343 21.4373C125.331 21.3298 125.413 21.2338 125.52 21.222C125.629 21.2163 125.723 21.2932 125.735 21.4007C126.159 26.1694 126.24 31.0319 126.315 35.7396C126.388 40.2648 126.462 44.9467 126.845 49.5313C126.857 49.6388 126.775 49.7348 126.666 49.7406C126.654 49.7441 126.642 49.7476 126.634 49.7433Z" fill="white"/>
<path d="M124.863 16.5215C124.836 16.5165 124.808 16.5115 124.785 16.4987C123.603 15.8329 122.551 14.9064 121.745 13.8168C121.681 13.7311 121.697 13.6088 121.782 13.5446C121.867 13.4805 121.989 13.497 122.053 13.5828C122.828 14.6295 123.836 15.5226 124.971 16.1569C125.064 16.208 125.099 16.3283 125.048 16.4216C125.009 16.4855 124.936 16.5263 124.863 16.5215Z" fill="white"/>
<path d="M125.982 26.5409C125.957 26.5419 125.927 26.5308 125.904 26.5181C123.566 25.2766 121.924 23.1776 120.479 21.328C120.415 21.2423 120.425 21.1218 120.508 21.0516C120.593 20.9874 120.713 20.998 120.783 21.0819C122.183 22.8664 123.765 24.8917 125.964 26.102C126.749 25.3688 127.402 24.4718 127.857 23.4959C127.899 23.3984 128.017 23.3573 128.114 23.4007C128.212 23.4441 128.253 23.5626 128.21 23.6601C127.715 24.7197 126.995 25.6954 126.127 26.479C126.083 26.5309 126.029 26.5466 125.982 26.5409Z" fill="white"/>
<path d="M126.114 34.4785C126.075 34.477 126.03 34.4575 126.002 34.4266C125.86 34.2983 125.72 34.176 125.581 34.0536C125.115 33.6413 124.671 33.2555 124.255 32.8352C124.181 32.7589 124.178 32.6359 124.259 32.5597C124.335 32.4853 124.457 32.482 124.533 32.5642C124.941 32.9803 125.378 33.3619 125.839 33.7622C125.935 33.8452 126.033 33.9341 126.128 34.0171C127.503 32.7255 128.501 31.009 128.94 29.1622C128.967 29.0562 129.072 28.9928 129.178 29.0206C129.283 29.0484 129.347 29.1539 129.319 29.26C128.846 31.2344 127.76 33.0684 126.262 34.4287C126.221 34.4668 126.167 34.4826 126.114 34.4785Z" fill="white"/>
</svg>
