<svg width="297" height="144" viewBox="0 0 297 144" fill="none" xmlns="http://www.w3.org/2000/svg">
<g filter="url(#filter0_dd)">
<path d="M113.735 40.2665C108.183 35.1853 99.1204 30.628 84.6101 31.2042C53.2848 32.4614 25.6787 2.65516 29.4503 -18.6125" stroke="#071B3C" stroke-width="0.523835" stroke-miterlimit="10"/>
<path d="M121.855 52.6817C121.855 52.6817 120.179 46.1338 113.735 40.2144" stroke="#071B3C" stroke-width="3.14301" stroke-miterlimit="10" stroke-linecap="round" stroke-linejoin="round"/>
<path d="M221.671 156.345L170.492 174.627C166.406 176.094 161.849 173.946 160.382 169.86L148.544 136.597C147.077 132.511 149.225 127.953 153.31 126.487L204.489 108.205C208.575 106.738 213.132 108.886 214.599 112.972L226.438 146.235C227.905 150.374 225.757 154.879 221.671 156.345Z" fill="#565A60"/>
<path d="M235.475 129.476L229.189 131.728C225.103 133.195 220.598 131.047 219.131 126.961L191.054 48.2814C189.587 44.1955 191.735 39.6905 195.82 38.2238L202.106 35.9713C206.192 34.5046 210.697 36.6523 212.164 40.7382L240.242 119.418C241.708 123.557 239.561 128.009 235.475 129.476Z" fill="#478DFF"/>
<path d="M219.55 148.7L166.381 167.663C158.733 170.387 150.299 166.406 147.575 158.758L113.159 62.2151C110.435 54.5671 114.416 46.1334 122.064 43.4094L175.234 24.4466C182.882 21.7226 191.315 25.7038 194.039 33.3518L228.508 129.895C231.232 137.543 227.198 145.976 219.55 148.7Z" fill="#82868B"/>
<path d="M181.101 83.0638L154.595 92.5452C146.737 95.3215 138.094 91.2356 135.317 83.4304L123.112 49.224C120.336 41.3665 124.422 32.7232 132.227 29.9469L158.733 20.4654C166.59 17.6891 175.234 21.775 178.01 29.5802L190.215 63.7342C193.044 71.6442 188.958 80.2874 181.101 83.0638Z" fill="#565A60"/>
<path d="M177.643 67.768L147.628 78.4542C144.642 79.5019 141.289 77.9828 140.242 74.9445L129.555 44.9288C128.508 41.9429 130.027 38.5904 133.065 37.5427L163.028 26.9088C166.014 25.8612 169.367 27.3803 170.414 30.4185L181.101 60.4343C182.201 63.4202 180.629 66.7203 177.643 67.768Z" fill="#FF3C3A"/>
<path d="M141.076 46.5712L169.698 60.2031M148.571 67.6982L162.203 39.076" stroke="white" stroke-width="4" stroke-linecap="round" stroke-linejoin="round"/>
<path d="M161.876 84.1638L152.709 87.4639C151.504 87.883 150.194 87.2544 149.723 86.0496C149.304 84.8448 149.932 83.5352 151.137 83.0637L160.304 79.7636C161.509 79.3445 162.819 79.9731 163.29 81.1779C163.709 82.3827 163.081 83.7447 161.876 84.1638Z" fill="#ADAFB1"/>
<path d="M179.372 77.9299L170.205 81.2301C169 81.6491 167.69 81.0205 167.219 79.8157C166.8 78.6109 167.429 77.3013 168.633 76.8298L177.8 73.5297C179.005 73.1106 180.315 73.7392 180.786 74.944C181.205 76.1488 180.577 77.4584 179.372 77.9299Z" fill="#ADAFB1"/>
<path d="M219.917 138.119L159.466 159.701C157.004 160.592 154.333 159.282 153.442 156.82L136.417 109.046C135.527 106.584 136.836 103.913 139.299 103.022L199.749 81.4402C202.211 80.5497 204.883 81.8592 205.773 84.3213L222.798 132.095C223.636 134.557 222.326 137.281 219.917 138.119Z" fill="#565A60"/>
<path d="M164.233 113.603L158.576 115.594C157.476 116.013 156.271 115.437 155.852 114.284L154.961 111.718C154.542 110.617 155.118 109.413 156.271 108.994L161.928 107.003C163.028 106.584 164.233 107.16 164.652 108.313L165.543 110.879C165.909 111.979 165.333 113.237 164.233 113.603Z" fill="#ADAFB1"/>
<path d="M178.429 108.522L172.772 110.513C171.672 110.932 170.467 110.356 170.048 109.203L169.157 106.637C168.738 105.537 169.314 104.332 170.467 103.913L176.124 101.922C177.224 101.503 178.429 102.079 178.848 103.232L179.739 105.799C180.105 106.899 179.529 108.156 178.429 108.522Z" fill="#ADAFB1"/>
<path d="M192.625 103.493L187.02 105.484C185.92 105.903 184.715 105.327 184.296 104.174L183.406 101.608C182.987 100.508 183.563 99.3028 184.715 98.8837L190.373 96.8931C191.473 96.4741 192.677 97.0503 193.097 98.2027L193.987 100.77C194.354 101.87 193.778 103.074 192.625 103.493Z" fill="#ADAFB1"/>
<path d="M167.9 123.923L162.243 125.914C161.143 126.333 159.938 125.757 159.519 124.604L158.628 122.037C158.209 120.937 158.785 119.733 159.938 119.314L165.595 117.323C166.695 116.904 167.9 117.48 168.319 118.633L169.21 121.199C169.576 122.299 169 123.504 167.9 123.923Z" fill="#ADAFB1"/>
<path d="M182.096 118.842L176.438 120.832C175.338 121.252 174.134 120.675 173.715 119.523L172.824 116.956C172.405 115.856 172.981 114.651 174.134 114.232L179.791 112.242C180.891 111.822 182.096 112.399 182.515 113.551L183.406 116.118C183.825 117.218 183.248 118.423 182.096 118.842Z" fill="#ADAFB1"/>
<path d="M196.344 113.76L190.687 115.751C189.587 116.17 188.382 115.594 187.963 114.441L187.072 111.875C186.653 110.775 187.229 109.57 188.382 109.151L194.039 107.16C195.139 106.741 196.344 107.317 196.763 108.47L197.654 111.037C198.02 112.137 197.444 113.394 196.344 113.76Z" fill="#ADAFB1"/>
<path d="M171.567 134.19L165.909 136.181C164.809 136.6 163.604 136.024 163.185 134.871L162.295 132.304C161.876 131.204 162.452 130 163.604 129.581L169.262 127.59C170.362 127.171 171.567 127.747 171.986 128.9L172.876 131.466C173.295 132.619 172.719 133.824 171.567 134.19Z" fill="#ADAFB1"/>
<path d="M185.815 129.162L180.158 131.152C179.058 131.571 177.853 130.995 177.434 129.842L176.543 127.276C176.124 126.176 176.7 124.971 177.853 124.552L183.51 122.561C184.61 122.142 185.815 122.718 186.234 123.871L187.125 126.438C187.491 127.538 186.915 128.742 185.815 129.162Z" fill="#ADAFB1"/>
<path d="M200.011 124.08L194.354 126.071C193.254 126.49 192.049 125.914 191.63 124.761L190.687 122.247C190.268 121.147 190.844 119.942 191.996 119.523L197.654 117.532C198.754 117.113 199.959 117.69 200.378 118.842L201.268 121.409C201.687 122.456 201.111 123.661 200.011 124.08Z" fill="#ADAFB1"/>
<path d="M175.076 144.038L169.419 146.029C168.319 146.448 167.114 145.872 166.695 144.719L165.805 142.152C165.385 141.052 165.962 139.848 167.114 139.429L172.772 137.438C173.872 137.019 175.076 137.595 175.495 138.748L176.386 141.314C176.805 142.414 176.229 143.672 175.076 144.038Z" fill="#DF738A"/>
<path d="M189.325 138.957L183.667 140.948C182.567 141.367 181.362 140.791 180.943 139.638L180.053 137.072C179.634 135.972 180.21 134.767 181.363 134.348L187.02 132.357C188.12 131.938 189.325 132.514 189.744 133.667L190.634 136.233C191.001 137.386 190.425 138.591 189.325 138.957Z" fill="#E0CC55"/>
<path d="M203.521 133.928L197.863 135.919C196.763 136.338 195.559 135.762 195.139 134.609L194.249 132.043C193.83 130.943 194.406 129.738 195.559 129.319L201.216 127.328C202.316 126.909 203.521 127.485 203.94 128.638L204.83 131.204C205.197 132.304 204.621 133.509 203.521 133.928Z" fill="#00CFC3"/>
<path d="M198.949 37.1325L195.791 38.2592L229.155 131.749L232.312 130.622L198.949 37.1325Z" fill="#33373D"/>
<path d="M235.971 31.2352L266.616 115.625C267.82 118.873 266.092 122.487 262.844 123.692L219.68 139.355C216.432 140.56 212.818 138.831 211.613 135.583L180.968 51.2457C179.764 47.998 181.492 44.3835 184.74 43.1787L227.904 27.516C231.152 26.3112 234.766 27.9875 235.971 31.2352Z" fill="#ADAFB1"/>
<path d="M235.657 30.4495L266.301 114.839C267.506 118.087 265.778 121.702 262.53 122.906L219.366 138.569C216.118 139.774 212.503 138.045 211.299 134.797L180.654 50.4076C179.449 47.1599 181.178 43.5454 184.426 42.3406L227.59 26.6779C230.838 25.4731 234.452 27.2017 235.657 30.4495Z" fill="#D6D7D8"/>
<path d="M187.896 41.0874L222.807 137.145L233.393 133.298L198.481 37.2401L187.896 41.0874Z" fill="#565A60"/>
<path d="M231.679 56.8495C234.603 55.9271 236.226 52.8084 235.304 49.8837C234.381 46.959 231.263 45.3359 228.338 46.2584C225.413 47.1808 223.79 50.2995 224.713 53.2242C225.635 56.1488 228.754 57.772 231.679 56.8495Z" fill="#DF738A"/>
<path d="M224.918 37.6261C227.799 36.5784 230.995 38.0452 231.99 40.9263C233.038 43.8073 231.571 47.0027 228.69 47.998C225.809 49.0457 222.613 47.579 221.618 44.6979C220.57 41.8168 222.037 38.6214 224.918 37.6261Z" fill="#0044D9"/>
<path d="M219.189 82.0013L234.453 123.999L239.967 121.995L224.703 79.9972L219.189 82.0013Z" fill="white"/>
<path d="M254.882 103.839L258.182 112.953C258.601 114.158 257.972 115.468 256.82 115.939L253.101 117.301C251.896 117.72 250.586 117.144 250.115 115.939L246.815 106.824C246.396 105.62 247.024 104.31 248.177 103.839L251.896 102.477C253.101 102.005 254.463 102.634 254.882 103.839Z" fill="white"/>
</g>
<defs>
<filter id="filter0_dd" x="-0.798166" y="-45.8284" width="297.438" height="253.027" filterUnits="userSpaceOnUse" color-interpolation-filters="sRGB">
<feFlood flood-opacity="0" result="BackgroundImageFix"/>
<feColorMatrix in="SourceAlpha" type="matrix" values="0 0 0 0 0 0 0 0 0 0 0 0 0 0 0 0 0 0 127 0" result="hardAlpha"/>
<feOffset dy="4.94001"/>
<feGaussianBlur stdDeviation="13.585"/>
<feColorMatrix type="matrix" values="0 0 0 0 0 0 0 0 0 0 0 0 0 0 0 0 0 0 0.08 0"/>
<feBlend mode="normal" in2="BackgroundImageFix" result="effect1_dropShadow"/>
<feColorMatrix in="SourceAlpha" type="matrix" values="0 0 0 0 0 0 0 0 0 0 0 0 0 0 0 0 0 0 127 0" result="hardAlpha"/>
<feOffset dy="2.47001"/>
<feGaussianBlur stdDeviation="14.82"/>
<feColorMatrix type="matrix" values="0 0 0 0 0 0 0 0 0 0 0 0 0 0 0 0 0 0 0.02 0"/>
<feBlend mode="normal" in2="effect1_dropShadow" result="effect2_dropShadow"/>
<feBlend mode="normal" in="SourceGraphic" in2="effect2_dropShadow" result="shape"/>
</filter>
</defs>
</svg>
