<svg width="41" height="56" viewBox="0 0 41 56" fill="none" xmlns="http://www.w3.org/2000/svg">
<path d="M35.6002 31.5403C35.9393 35.1344 35.2394 39.4698 32.0014 41.6469C30.5739 42.6004 28.6868 43.0124 27.042 43.5185C25.849 43.865 23.2864 45.1595 22.1435 44.7994C23.0864 43.6577 25.8143 34.2182 22.7287 34.9187C21.2989 35.2291 20.3567 39.4704 19.8822 40.6264C19.4545 41.661 19.0378 42.8115 18.4257 43.7466C17.8659 44.6182 16.9153 45.0588 16.9668 46.2236C17.0895 48.1421 19.6973 49.1827 20.9637 50.2329C22.6733 51.6507 24.3437 53.891 26.3566 54.8123C28.1272 55.6395 30.0754 54.6369 29.2367 52.5521C28.5574 50.9201 26.5531 49.4716 25.1656 48.3743C28.6037 47.699 32.6148 46.9112 35.3791 44.6619C38.0856 42.418 39.3053 39.2617 39.9824 35.9226C41.6158 27.873 37.2603 20.6809 30.4539 16.5858C29.1571 15.8309 27.1933 15.4313 26.3788 14.2215C25.9028 13.5061 25.7989 12.4047 25.3752 11.6258C24.9461 10.789 24.3434 9.96863 23.7516 9.26416C21.3628 6.21438 17.8826 3.96939 14.3578 2.48892C11.6867 1.39578 8.35964 0.773934 5.51958 0.983414C4.01551 1.12533 1.97124 1.7276 1.03935 2.98523C0.835307 3.29691 0.107462 4.24286 0.324764 4.69024C0.690581 5.47452 1.06586 4.50335 1.39108 4.23872C4.88556 1.68657 9.68301 3.04696 13.2766 4.63792C15.4107 5.60627 17.3986 6.88083 19.177 8.40911C20.2588 9.35977 23.1191 11.8387 23.0299 13.3677C19.9101 11.8491 14.7506 12.2189 11.8901 14.0679C6.99319 17.2202 10.1215 22.5397 14.7235 23.6845C17.2352 24.3248 20.4333 24.1986 22.7645 22.9259C23.762 22.3639 24.6798 21.5754 25.4186 20.7454C26.309 19.6672 26.0862 19.1618 27.4933 19.8479C31.7998 22.1903 35.1298 26.555 35.6002 31.5403ZM18.422 20.8207C17.0313 20.3086 13.2876 20.8373 12.7905 18.6617C12.3043 16.6021 16.3702 16.394 17.5435 16.4587C18.6012 16.5344 22.7687 16.7845 23.1149 17.98C23.483 19.4074 19.1631 20.6338 18.422 20.8207C20.1247 20.3092 17.7005 20.5964 18.422 20.8207Z" fill="#95F0EB"/>
</svg>
