<svg width="466" height="260" viewBox="0 0 466 260" fill="none" xmlns="http://www.w3.org/2000/svg"><path d="M0 7.02A7.02 7.02 0 017.02 0H458.98A7.02 7.02 0 01466 7.02V252.98a7.02 7.02 0 01-7.021 7.021H7.021A7.02 7.02 0 010 252.979V7.021z" fill="#F8F8F8"/><path d="M351.142 244.009v-10.14h-3.899v-1.409h9.518v1.409h-3.915v10.14h-1.704zm6.97 0v-7.994h1.654v7.994h-1.654zm-.115-11.565h1.901v1.72h-1.901v-1.72zm13.256 3.374c1.792 0 2.687 1.076 2.687 3.228v4.963h-1.655v-4.898c0-.677-.12-1.169-.36-1.474-.229-.317-.606-.475-1.13-.475-.601 0-1.076.207-1.426.622-.349.415-.524.983-.524 1.704v4.521h-1.654v-4.898c0-.677-.12-1.169-.361-1.474-.24-.317-.617-.475-1.13-.475-.612 0-1.092.207-1.442.622-.349.415-.524.983-.524 1.704v4.521h-1.655v-7.994h1.622v1.212c.251-.448.59-.792 1.016-1.032a2.818 2.818 0 011.458-.377c1.234 0 2.037.514 2.408 1.54.251-.48.612-.857 1.081-1.13.47-.273 1-.41 1.589-.41zm11.8 4.473h-5.651c.12 1.692.961 2.539 2.523 2.539.917 0 1.747-.301 2.49-.901l.507 1.163c-.371.317-.83.568-1.376.753a5.149 5.149 0 01-1.671.279c-1.277 0-2.288-.366-3.03-1.098-.732-.731-1.098-1.742-1.098-3.03 0-.819.158-1.546.475-2.179a3.629 3.629 0 011.36-1.475c.59-.349 1.256-.524 1.998-.524 1.082 0 1.928.35 2.54 1.049.622.699.933 1.665.933 2.899v.525zm-3.44-3.26c-.633 0-1.141.202-1.523.606-.372.393-.595.961-.672 1.703h4.21c-.033-.742-.224-1.31-.573-1.703-.339-.404-.819-.606-1.442-.606z" fill="#000"/><path d="M314.22 26.361h-1.867l-1.966-3.702c-.219-.393-.481-.666-.787-.82-.294-.163-.688-.245-1.179-.245h-1.9v4.767h-1.671V14.812h4.914c1.278 0 2.25.284 2.916.852.677.568 1.016 1.398 1.016 2.49 0 .884-.251 1.61-.754 2.179-.491.568-1.196.928-2.113 1.08.568.176 1.038.602 1.409 1.279l1.982 3.67zm-4.652-6.127c.851 0 1.479-.163 1.884-.491.415-.339.622-.857.622-1.556 0-.7-.202-1.207-.606-1.524-.404-.328-1.038-.491-1.9-.491h-3.064v4.062h3.064zm13.243 2.409h-5.651c.12 1.692.961 2.539 2.522 2.539.918 0 1.748-.3 2.49-.901l.508 1.163c-.371.317-.83.568-1.376.754a5.156 5.156 0 01-1.671.278c-1.278 0-2.288-.366-3.03-1.098-.732-.731-1.098-1.742-1.098-3.03 0-.82.158-1.546.475-2.18a3.628 3.628 0 011.36-1.473c.59-.35 1.256-.525 1.998-.525 1.082 0 1.928.35 2.54 1.049.622.699.933 1.665.933 2.9v.524zm-3.44-3.26c-.633 0-1.141.202-1.523.606-.372.393-.596.96-.672 1.703h4.21c-.033-.742-.224-1.31-.573-1.703-.339-.404-.819-.606-1.442-.606zm8.081 7.093c-1.387 0-2.495-.339-3.325-1.016l.508-1.196c.819.634 1.774.95 2.867.95.535 0 .944-.087 1.228-.261a.873.873 0 00.426-.77c0-.284-.098-.508-.295-.672-.185-.164-.513-.3-.983-.41l-1.327-.295c-.71-.163-1.245-.431-1.605-.802-.36-.372-.541-.841-.541-1.41 0-.72.29-1.304.869-1.752.589-.448 1.359-.672 2.309-.672a4.73 4.73 0 011.622.279c.514.174.956.426 1.327.753l-.508 1.163c-.786-.622-1.6-.933-2.441-.933-.502 0-.901.098-1.195.295a.927.927 0 00-.426.802c0 .273.087.497.262.672.185.164.475.29.868.377l1.36.311c.775.175 1.343.448 1.703.82.361.36.541.835.541 1.424 0 .721-.295 1.294-.885 1.72-.578.415-1.365.623-2.359.623zm8.79-1.278c.251 0 .497-.016.737-.049l-.082 1.261a5.385 5.385 0 01-.852.066c-1.037 0-1.813-.251-2.326-.754-.502-.513-.753-1.25-.753-2.211v-3.866h-1.557v-1.278h1.557v-2.408h1.654v2.408h2.195v1.278h-2.195v3.8c0 1.169.541 1.753 1.622 1.753zm6.857-5.635l-1 .098c-.786.076-1.354.317-1.703.72-.339.405-.508.918-.508 1.54v4.44h-1.655v-7.994h1.606v1.392c.425-.939 1.294-1.458 2.604-1.556l.541-.033.115 1.393zm1.133 6.798v-7.994h1.655v7.994h-1.655zm-.114-11.565h1.9v1.72h-1.9v-1.72zm7.588 11.68c-.808 0-1.513-.17-2.114-.508a3.537 3.537 0 01-1.376-1.425c-.316-.623-.475-1.349-.475-2.179 0-.83.164-1.562.492-2.195a3.661 3.661 0 011.409-1.474c.611-.35 1.321-.525 2.129-.525.557 0 1.092.093 1.606.279.524.185.95.437 1.277.753l-.507 1.18c-.721-.59-1.469-.885-2.245-.885-.764 0-1.365.251-1.802.754-.426.491-.639 1.19-.639 2.097 0 .895.213 1.589.639 2.08.426.48 1.027.721 1.802.721.776 0 1.524-.295 2.245-.885l.507 1.196c-.349.317-.786.568-1.31.754a5.145 5.145 0 01-1.638.262zm8.229-1.278c.251 0 .497-.016.737-.049l-.081 1.261a5.385 5.385 0 01-.852.066c-1.038 0-1.813-.251-2.327-.754-.502-.513-.753-1.25-.753-2.211v-3.866h-1.556v-1.278h1.556v-2.408h1.654v2.408h2.196v1.278h-2.196v3.8c0 1.169.541 1.753 1.622 1.753zm1.991 1.163v-7.994h1.655v7.994h-1.655zm-.114-11.565h1.9v1.72h-1.9v-1.72zm9.75 3.587h1.655l-3.473 7.978h-1.491l-3.44-7.978h1.736l2.49 6.11 2.523-6.11zm9.579 4.26h-5.652c.12 1.692.961 2.539 2.523 2.539.917 0 1.747-.3 2.49-.901l.508 1.163c-.372.317-.83.568-1.377.754a5.156 5.156 0 01-1.671.278c-1.277 0-2.288-.366-3.03-1.098-.732-.731-1.098-1.742-1.098-3.03 0-.82.159-1.546.475-2.18a3.628 3.628 0 011.36-1.473c.59-.35 1.256-.525 1.999-.525 1.081 0 1.927.35 2.539 1.049.622.699.934 1.665.934 2.9v.524zm-3.441-3.26c-.633 0-1.141.202-1.523.606-.372.393-.595.96-.672 1.703h4.21c-.032-.742-.224-1.31-.573-1.703-.339-.404-.819-.606-1.442-.606zm9.78-4.571h4.046c1.868 0 3.315.502 4.342 1.507 1.026 1.005 1.539 2.425 1.539 4.26 0 1.834-.513 3.26-1.539 4.275-1.027 1.005-2.474 1.507-4.342 1.507h-4.046V14.812zm3.948 10.14c2.84 0 4.259-1.458 4.259-4.374 0-2.905-1.419-4.357-4.259-4.357h-2.261v8.732h2.261zm8.078 1.41v-7.995h1.655v7.994h-1.655zm-.115-11.566h1.901v1.72h-1.901v-1.72zm10.93 7.847h-5.652c.121 1.692.961 2.539 2.523 2.539.918 0 1.748-.3 2.49-.901l.508 1.163c-.371.317-.83.568-1.376.754a5.156 5.156 0 01-1.671.278c-1.278 0-2.288-.366-3.031-1.098-.731-.731-1.097-1.742-1.097-3.03 0-.82.158-1.546.475-2.18a3.628 3.628 0 011.36-1.473c.589-.35 1.256-.525 1.998-.525 1.081 0 1.928.35 2.539 1.049.623.699.934 1.665.934 2.9v.524zm-3.44-3.26c-.633 0-1.141.202-1.524.606-.371.393-.595.96-.671 1.703h4.21c-.033-.742-.224-1.31-.573-1.703-.339-.404-.82-.606-1.442-.606zm8.968 5.815c.251 0 .497-.016.737-.049l-.082 1.261a5.385 5.385 0 01-.852.066c-1.037 0-1.813-.251-2.326-.754-.502-.513-.754-1.25-.754-2.211v-3.866h-1.556v-1.278h1.556v-2.408h1.655v2.408h2.195v1.278h-2.195v3.8c0 1.169.541 1.753 1.622 1.753z" fill="#EC3B15"/><path d="M316.647 176.045c.667.185 1.18.518 1.54.999.372.48.557 1.081.557 1.802 0 .994-.344 1.769-1.032 2.326-.677.546-1.627.819-2.85.819h-5.013v-11.549h4.833c1.19 0 2.118.267 2.784.803.678.524 1.016 1.261 1.016 2.211 0 .612-.164 1.141-.491 1.589-.317.448-.765.781-1.344 1zm-5.144-.607h2.916c1.617 0 2.425-.611 2.425-1.834 0-.612-.202-1.065-.606-1.36-.393-.295-.999-.442-1.819-.442h-2.916v3.636zm3.179 5.193c.84 0 1.458-.152 1.851-.458.393-.306.589-.781.589-1.425 0-.656-.202-1.142-.606-1.458-.393-.328-1.004-.492-1.834-.492h-3.179v3.833h3.179zm9.415-6.831c1.07 0 1.862.268 2.375.803.525.535.787 1.349.787 2.441v4.947h-1.589v-1.327c-.208.47-.519.83-.934 1.081-.404.241-.879.361-1.425.361a3.324 3.324 0 01-1.442-.311 2.597 2.597 0 01-1.032-.901 2.359 2.359 0 01-.361-1.278c0-.579.148-1.032.443-1.36.306-.338.802-.579 1.491-.721.699-.142 1.654-.213 2.866-.213h.377v-.475c0-.611-.131-1.054-.393-1.327-.251-.273-.666-.409-1.245-.409-.906 0-1.813.278-2.719.835l-.492-1.163c.426-.295.939-.53 1.54-.704a6.026 6.026 0 011.753-.279zm-.492 7.077c.601 0 1.093-.202 1.475-.606.382-.415.573-.945.573-1.589v-.426h-.295c-.852 0-1.507.038-1.966.115-.458.076-.786.207-.982.393-.197.175-.295.431-.295.77 0 .382.136.704.409.966.284.252.645.377 1.081.377zm5.917 1.114v-11.549h1.655v11.549h-1.655zm7.309-8.191c1.071 0 1.863.268 2.376.803.524.535.786 1.349.786 2.441v4.947h-1.589v-1.327a2.32 2.32 0 01-.934 1.081c-.404.241-.879.361-1.425.361a3.327 3.327 0 01-1.442-.311 2.611 2.611 0 01-1.032-.901 2.358 2.358 0 01-.36-1.278c0-.579.147-1.032.442-1.36.306-.338.803-.579 1.491-.721.699-.142 1.655-.213 2.867-.213h.377v-.475c0-.611-.131-1.054-.393-1.327-.252-.273-.667-.409-1.246-.409-.906 0-1.812.278-2.719.835l-.491-1.163c.426-.295.939-.53 1.54-.704a6.014 6.014 0 011.752-.279zm-.491 7.077c.601 0 1.092-.202 1.474-.606.383-.415.574-.945.574-1.589v-.426h-.295c-.852 0-1.507.038-1.966.115-.459.076-.786.207-.983.393-.197.175-.295.431-.295.77 0 .382.137.704.41.966.284.252.644.377 1.081.377zm10.225-7.077c1.911 0 2.867 1.076 2.867 3.227v4.964h-1.655v-4.882c0-.677-.136-1.174-.409-1.49-.262-.317-.677-.476-1.245-.476-.667 0-1.202.208-1.606.623-.404.415-.606.972-.606 1.671v4.554h-1.655v-7.994h1.622v1.278a2.653 2.653 0 011.098-1.098 3.315 3.315 0 011.589-.377zm8.636 8.306c-.808 0-1.513-.169-2.113-.508a3.53 3.53 0 01-1.376-1.425c-.317-.623-.475-1.349-.475-2.179 0-.83.163-1.562.491-2.195a3.669 3.669 0 011.409-1.475c.612-.349 1.321-.524 2.13-.524.557 0 1.092.093 1.605.279.524.185.95.437 1.278.753l-.508 1.18c-.721-.59-1.469-.885-2.244-.885-.765 0-1.365.251-1.802.754-.426.491-.639 1.19-.639 2.097 0 .895.213 1.589.639 2.08.426.481 1.026.721 1.802.721.775 0 1.523-.295 2.244-.885l.508 1.196c-.35.317-.786.568-1.311.754a5.136 5.136 0 01-1.638.262zm11.261-3.834h-5.652c.12 1.693.961 2.54 2.523 2.54.918 0 1.748-.301 2.49-.901l.508 1.163c-.371.317-.83.568-1.376.753a5.149 5.149 0 01-1.671.279c-1.278 0-2.288-.366-3.031-1.098-.731-.731-1.097-1.742-1.097-3.03 0-.82.158-1.546.475-2.179a3.622 3.622 0 011.36-1.475c.589-.349 1.255-.524 1.998-.524 1.081 0 1.928.35 2.539 1.049.623.699.934 1.665.934 2.899v.524zm-3.44-3.26c-.634 0-1.141.202-1.524.607-.371.393-.595.961-.671 1.703h4.21c-.033-.742-.224-1.31-.573-1.703-.339-.405-.82-.607-1.442-.607zm12.635-4.57v11.549h-1.638v-1.376c-.24.481-.59.852-1.048 1.114-.459.251-.989.377-1.589.377a3.37 3.37 0 01-1.852-.524c-.535-.35-.955-.841-1.261-1.475-.295-.633-.442-1.359-.442-2.179 0-.83.147-1.556.442-2.178.306-.623.726-1.103 1.261-1.442.536-.339 1.153-.508 1.852-.508.6 0 1.125.131 1.572.393.459.252.808.612 1.049 1.082v-4.833h1.654zm-3.882 10.353c.721 0 1.272-.245 1.654-.737.394-.491.59-1.19.59-2.097 0-.906-.196-1.605-.59-2.097-.382-.491-.933-.737-1.654-.737-.721 0-1.283.246-1.688.737-.393.481-.589 1.169-.589 2.064 0 .896.202 1.6.606 2.114.404.502.961.753 1.671.753zm10.705-10.353h4.047c1.867 0 3.314.502 4.341 1.507 1.027 1.005 1.54 2.425 1.54 4.259 0 1.835-.513 3.26-1.54 4.276-1.027 1.005-2.474 1.507-4.341 1.507h-4.047v-11.549zm3.948 10.14c2.84 0 4.26-1.458 4.26-4.374 0-2.905-1.42-4.357-4.26-4.357h-2.26v8.731h2.26zm8.078 1.409v-7.994h1.655v7.994h-1.655zm-.114-11.566h1.9v1.721h-1.9v-1.721zm10.93 7.847h-5.652c.12 1.693.961 2.54 2.523 2.54.917 0 1.747-.301 2.49-.901l.508 1.163c-.372.317-.83.568-1.377.753a5.149 5.149 0 01-1.671.279c-1.277 0-2.288-.366-3.03-1.098-.732-.731-1.098-1.742-1.098-3.03 0-.82.159-1.546.475-2.179a3.629 3.629 0 011.36-1.475c.59-.349 1.256-.524 1.999-.524 1.081 0 1.927.35 2.539 1.049.622.699.934 1.665.934 2.899v.524zm-3.441-3.26c-.633 0-1.141.202-1.523.607-.372.393-.595.961-.672 1.703h4.21c-.032-.742-.224-1.31-.573-1.703-.339-.405-.819-.607-1.442-.607zm8.968 5.816c.251 0 .497-.016.737-.049l-.082 1.261a5.346 5.346 0 01-.851.066c-1.038 0-1.813-.251-2.327-.754-.502-.513-.753-1.25-.753-2.211v-3.866h-1.557v-1.278h1.557v-2.408h1.654v2.408h2.196v1.278h-2.196v3.8c0 1.169.541 1.753 1.622 1.753z" fill="#00CFC3"/><path d="M83.099 14.812h1.638l-4.063 11.55h-1.392l-3.113-8.945-3.145 8.944H71.63l-4.046-11.549h1.704l3.096 9.158 3.194-9.158 1.245.016 3.13 9.19 3.145-9.206zm9.187 7.83h-5.652c.12 1.693.961 2.54 2.523 2.54.918 0 1.748-.3 2.49-.901l.508 1.163c-.371.317-.83.568-1.376.754a5.157 5.157 0 01-1.671.278c-1.278 0-2.288-.366-3.03-1.098-.732-.731-1.098-1.742-1.098-3.03 0-.82.158-1.546.475-2.18a3.626 3.626 0 011.36-1.473c.59-.35 1.255-.525 1.998-.525 1.081 0 1.928.35 2.54 1.049.622.699.933 1.665.933 2.9v.524zm-3.44-3.26c-.633 0-1.141.203-1.524.607-.37.393-.595.96-.671 1.703h4.21c-.033-.742-.224-1.31-.574-1.703-.338-.404-.819-.606-1.441-.606zm5.263 6.98v-7.995h1.655v7.994h-1.655zm-.114-11.566h1.9v1.72h-1.9v-1.72zm11.519 3.57v7.356c0 1.224-.327 2.146-.982 2.769-.645.622-1.6.934-2.867.934a6.846 6.846 0 01-1.966-.279 5.39 5.39 0 01-1.638-.77l.507-1.196c.525.339 1.027.58 1.508.721.491.153 1.015.23 1.572.23 1.496 0 2.245-.76 2.245-2.277v-1.262a2.56 2.56 0 01-1.049 1.13c-.469.262-1.016.394-1.638.394-.699 0-1.322-.164-1.868-.492a3.36 3.36 0 01-1.277-1.392c-.295-.601-.443-1.294-.443-2.08 0-.787.153-1.48.459-2.081.306-.601.726-1.065 1.261-1.393.547-.338 1.169-.508 1.868-.508.612 0 1.147.131 1.605.393.47.263.825.634 1.065 1.114v-1.31h1.638zm-3.915 6.439c.71 0 1.267-.235 1.671-.704.404-.47.606-1.12.606-1.95 0-.819-.202-1.463-.606-1.933-.393-.48-.95-.72-1.671-.72-.721 0-1.289.234-1.704.704-.404.47-.606 1.12-.606 1.95 0 .83.208 1.479.623 1.949.415.47.977.704 1.687.704zm10.529-6.635c1.912 0 2.867 1.076 2.867 3.228v4.963h-1.654V21.48c0-.678-.137-1.175-.41-1.491-.262-.317-.677-.475-1.245-.475-.666 0-1.201.207-1.605.622-.405.415-.607.972-.607 1.671v4.554h-1.654V14.812h1.654v4.767a2.736 2.736 0 011.098-1.048c.459-.24.977-.36 1.556-.36zm8.915 7.028c.251 0 .497-.016.737-.049l-.082 1.261a5.385 5.385 0 01-.852.066c-1.037 0-1.813-.251-2.326-.754-.502-.513-.753-1.25-.753-2.211v-3.866h-1.557v-1.278h1.557v-2.408h1.654v2.408h2.195v1.278h-2.195v3.8c0 1.169.541 1.753 1.622 1.753z" fill="#000"/><path d="M90.664 94.59v123.235h267.532v-21.401s-58.114 8.37-109.456-9.799c-35.249-13.031-51.682-28.818-78.561-52.159C120.265 96.121 90.664 94.59 90.664 94.59z" fill="#ADEEEA"/><path d="M358.196 217.825H90.664V35.69" stroke="#C5C5C5" stroke-width=".68" stroke-miterlimit="10"/><path d="M358.196 196.424s-58.114 8.37-109.456-9.799c-35.249-13.031-51.682-28.818-78.561-52.159C120.265 96.121 90.664 94.59 90.664 94.59" stroke="#00CFC3" stroke-width=".68" stroke-miterlimit="10"/><g filter="url(#filter0_d)"><path fill-rule="evenodd" clip-rule="evenodd" d="M358.763 203.928a8.299 8.299 0 100-16.598 8.299 8.299 0 000 16.598z" fill="#00CFC3"/><path d="M365.238 195.629a6.475 6.475 0 11-12.95 0 6.475 6.475 0 0112.95 0z" stroke="#fff" stroke-width="3.647"/></g><path d="M357.548 94.216V39.608s-28.104-2.178-52.567 18.1c-13.814 11.466-22.933 24.157-30.01 36.508h82.577z" fill="#FFBAAB"/><path d="M357.65 39.063s-28.104-2.177-52.567 18.101c-47.634 39.604-39.604 93.668-82.746 97.547-22.524 1.939-46.035-16.434-52.704-20.823-49.913-38.31-79.548-39.842-79.548-39.842" stroke="#EC3B15" stroke-width=".68" stroke-miterlimit="10"/><path d="M358.365 43.35a4.355 4.355 0 10.001-8.709 4.355 4.355 0 00-.001 8.71z" fill="#EC3B15"/><path d="M89.677 94.217h1.701" stroke="#EC3B15" stroke-width=".68" stroke-miterlimit="10"/><path d="M94.813 94.217h259.298" stroke="#EC3B15" stroke-width=".68" stroke-miterlimit="10" stroke-dasharray="3.43 3.43"/><path d="M355.846 94.217h1.702" stroke="#EC3B15" stroke-width=".68" stroke-miterlimit="10"/><path d="M169.361 137.359a4.355 4.355 0 100-8.71 4.355 4.355 0 000 8.71z" fill="#EC3B15"/><path d="M169.26 216.806v-1.702" stroke="#EC3B15" stroke-width=".68" stroke-miterlimit="10"/><path d="M169.26 211.634v-74.717" stroke="#EC3B15" stroke-width=".68" stroke-miterlimit="10" stroke-dasharray="3.47 3.47"/><path d="M169.26 135.182v-1.702" stroke="#EC3B15" stroke-width=".68" stroke-miterlimit="10"/><g filter="url(#filter1_d)"><path fill-rule="evenodd" clip-rule="evenodd" d="M90.799 103.295a8.299 8.299 0 100-16.598 8.299 8.299 0 000 16.598z" fill="#00CFC3"/><path d="M97.274 94.996a6.475 6.475 0 11-12.95 0 6.475 6.475 0 0112.95 0z" stroke="#fff" stroke-width="3.647"/></g><defs><filter id="filter0_d" x="340.739" y="182.467" width="36.049" height="36.049" filterUnits="userSpaceOnUse" color-interpolation-filters="sRGB"><feFlood flood-opacity="0" result="BackgroundImageFix"/><feColorMatrix in="SourceAlpha" values="0 0 0 0 0 0 0 0 0 0 0 0 0 0 0 0 0 0 127 0"/><feOffset dy="4.863"/><feGaussianBlur stdDeviation="4.863"/><feColorMatrix values="0 0 0 0 0 0 0 0 0 0 0 0 0 0 0 0 0 0 0.16 0"/><feBlend in2="BackgroundImageFix" result="effect1_dropShadow"/><feBlend in="SourceGraphic" in2="effect1_dropShadow" result="shape"/></filter><filter id="filter1_d" x="72.774" y="81.834" width="36.049" height="36.049" filterUnits="userSpaceOnUse" color-interpolation-filters="sRGB"><feFlood flood-opacity="0" result="BackgroundImageFix"/><feColorMatrix in="SourceAlpha" values="0 0 0 0 0 0 0 0 0 0 0 0 0 0 0 0 0 0 127 0"/><feOffset dy="4.863"/><feGaussianBlur stdDeviation="4.863"/><feColorMatrix values="0 0 0 0 0 0 0 0 0 0 0 0 0 0 0 0 0 0 0.16 0"/><feBlend in2="BackgroundImageFix" result="effect1_dropShadow"/><feBlend in="SourceGraphic" in2="effect1_dropShadow" result="shape"/></filter></defs></svg>