<svg width="36" height="36" viewBox="0 0 36 36" fill="none" xmlns="http://www.w3.org/2000/svg">
<rect width="36" height="36" rx="18" fill="white"/>
<path d="M27.2987 7.60923C27.2941 7.58626 27.2856 7.56501 27.279 7.54283C27.2716 7.51775 27.2659 7.49236 27.2558 7.468C27.2449 7.44152 27.2299 7.41744 27.2161 7.39258C27.2059 7.37429 27.198 7.35521 27.1863 7.33762C27.1307 7.25437 27.0592 7.18289 26.976 7.12733C26.9587 7.11586 26.9401 7.1081 26.9222 7.09818C26.897 7.08413 26.8725 7.06898 26.8456 7.05783C26.8215 7.04788 26.7964 7.04224 26.7716 7.03488C26.7492 7.02818 26.7276 7.01956 26.7044 7.01494C26.6554 7.00522 26.6058 7 26.5561 7H22.3781C21.9597 7 21.6206 7.33912 21.6206 7.75754C21.6206 8.17596 21.9597 8.51507 22.3781 8.51507H24.7274L21.475 11.7675C20.4204 10.9421 19.0967 10.4452 17.6568 10.4452C16.2169 10.4452 14.8933 10.9421 13.8387 11.7675L13.1305 11.0594L14.4163 9.77374C14.7122 9.47798 14.7122 8.9983 14.4163 8.70254C14.1204 8.40662 13.641 8.40662 13.3451 8.70254L12.0593 9.98821L10.5863 8.51515L12.3999 8.51508C12.8184 8.51508 13.1575 8.17581 13.1575 7.75754C13.1575 7.33912 12.8184 7 12.3999 7L8.75754 7.00015C8.70783 7.00015 8.65826 7.00537 8.60929 7.01509C8.60781 7.01537 8.60626 7.01524 8.60485 7.01554C8.5831 7.01998 8.56328 7.02871 8.54227 7.03498C8.51741 7.04235 8.49218 7.048 8.46807 7.05798C8.44121 7.06908 8.4168 7.08419 8.39164 7.09819C8.37374 7.10816 8.35495 7.11596 8.33771 7.12748C8.25449 7.18304 8.18295 7.25454 8.12739 7.33777C8.11555 7.35552 8.10749 7.37478 8.09728 7.39325C8.0836 7.41794 8.0688 7.44178 8.05785 7.46807C8.04772 7.49263 8.04188 7.51824 8.03448 7.54356C8.02796 7.56553 8.01946 7.58662 8.01494 7.60938C8.00518 7.65832 8 7.70798 8 7.75769V11.4001C8 11.8185 8.33912 12.1576 8.75754 12.1576C9.17596 12.1576 9.51507 11.8185 9.51507 11.4001V9.5864L10.9881 11.0594L9.70239 12.3451C9.40647 12.6409 9.40647 13.1205 9.70239 13.4163C9.85034 13.5642 10.0442 13.6382 10.238 13.6382C10.4318 13.6382 10.6256 13.5642 10.7736 13.4163L12.0593 12.1306L12.7675 12.8387C11.942 13.8934 11.445 15.217 11.445 16.657C11.445 19.8253 13.8308 22.4423 16.8993 22.8178V26.0401H15.0812C14.6628 26.0401 14.3237 26.3792 14.3237 26.7976C14.3237 27.2161 14.6628 27.5552 15.0812 27.5552H16.8993V29.2425C16.8993 29.6609 17.2384 30 17.6568 30C18.0753 30 18.4144 29.6609 18.4144 29.2425V27.5552H20.2325C20.6509 27.5552 20.99 27.216 20.99 26.7976C20.99 26.3792 20.6509 26.0401 20.2325 26.0401H18.4144V22.8178C21.4828 22.4423 23.8686 19.8252 23.8686 16.657C23.8686 15.217 23.3717 13.8934 22.5462 12.8387L25.7986 9.58628V12.0965C25.7986 12.5149 26.1377 12.8541 26.5561 12.8541C26.9745 12.8541 27.3137 12.5149 27.3137 12.0965V7.75754C27.3137 7.70782 27.3085 7.65816 27.2987 7.60923ZM17.6568 21.3537C15.067 21.3537 12.9601 19.2468 12.9601 16.657C12.9601 14.0671 15.067 11.9602 17.6568 11.9602C20.2467 11.9602 22.3536 14.0671 22.3536 16.657C22.3536 19.2468 20.2467 21.3537 17.6568 21.3537Z" fill="#4DDBB8"/>
</svg>
