<svg width="36" height="36" viewBox="0 0 36 36" fill="none" xmlns="http://www.w3.org/2000/svg">
<rect width="36" height="36" rx="18" fill="white"/>
<path d="M28.9996 7.80831C28.9996 7.7386 28.9923 7.66896 28.9786 7.60033C28.9722 7.56812 28.9603 7.53832 28.951 7.50722C28.9406 7.47205 28.9326 7.43644 28.9185 7.40228C28.9031 7.36514 28.8821 7.33138 28.8627 7.29652C28.8486 7.27087 28.8374 7.2441 28.8209 7.21943C28.743 7.10269 28.6427 7.00245 28.526 6.92454C28.5019 6.90846 28.4758 6.89757 28.4507 6.88366C28.4153 6.86395 28.381 6.84271 28.3432 6.82707C28.3094 6.81312 28.2742 6.80521 28.2395 6.79489C28.208 6.7855 28.1778 6.77341 28.1452 6.76693C28.0765 6.75329 28.007 6.74597 27.9372 6.74597H22.0782C21.4914 6.74597 21.0159 7.22154 21.0159 7.80831C21.0159 8.39509 21.4914 8.87065 22.0782 8.87065H25.3728L20.812 13.4318C19.3329 12.2741 17.4767 11.5771 15.4573 11.5771C10.6539 11.5771 6.74609 15.485 6.74609 20.2883C6.74609 25.0916 10.6539 28.9995 15.4573 28.9995C20.2606 28.9995 24.1684 25.0916 24.1684 20.2883C24.1684 18.269 23.4716 16.413 22.3141 14.934L26.8751 10.3728L26.8753 13.8931C26.8753 14.4799 27.3509 14.9554 27.9377 14.9554C28.5244 14.9554 29 14.4797 29 13.8931L28.9996 7.80831ZM15.4573 26.8748C11.8254 26.8748 8.87077 23.9202 8.87077 20.2883C8.87077 16.6564 11.8254 13.7018 15.4573 13.7018C19.0891 13.7018 22.0438 16.6564 22.0438 20.2883C22.0438 23.9202 19.0891 26.8748 15.4573 26.8748Z" fill="#6BB7ED"/>
</svg>
