<svg width="36" height="36" viewBox="0 0 36 36" fill="none" xmlns="http://www.w3.org/2000/svg">
<rect width="36" height="36" rx="18" fill="white"/>
<path d="M25.3966 13.6983C25.3966 9.45345 21.9431 6 17.6983 6C13.4534 6 10 9.45345 10 13.6983C10 17.6247 12.9567 20.868 16.7595 21.3333V25.3268H14.5063C13.9878 25.3268 13.5675 25.747 13.5675 26.2656C13.5675 26.7841 13.9878 27.2044 14.5063 27.2044H16.7595V29.2954C16.7595 29.814 17.1797 30.2343 17.6983 30.2343C18.2168 30.2343 18.6371 29.814 18.6371 29.2954V27.2044H20.8903C21.4088 27.2044 21.8291 26.7841 21.8291 26.2656C21.8291 25.747 21.4088 25.3268 20.8903 25.3268H18.6371V21.3333C22.4398 20.868 25.3966 17.6247 25.3966 13.6983ZM11.8776 13.6983C11.8776 10.4887 14.4887 7.87763 17.6983 7.87763C20.9079 7.87763 23.5189 10.4887 23.5189 13.6983C23.5189 16.9079 20.9079 19.5189 17.6983 19.5189C14.4887 19.5189 11.8776 16.9079 11.8776 13.6983Z" fill="#EB93B2"/>
</svg>
